<?xml version="1.0" encoding="utf-8"?>
<!-- Generator: Adobe Illustrator 23.0.3, SVG Export Plug-In . SVG Version: 6.00 Build 0)  -->
<svg version="1.1" id="Layer_1" xmlns="http://www.w3.org/2000/svg" xmlns:xlink="http://www.w3.org/1999/xlink" x="0px" y="0px"
	 viewBox="-178.3 -167.1 1000 700" enable-background="new -178.3 -167.1 1000 700" xml:space="preserve">
<g>
	<path fill="#FF0000" d="M263.7,327.5c2.6,0,4.8,0.9,6.6,2.7c1.8,1.8,2.7,4,2.7,6.6v32.5h-33.2c-2.6,0-4.8-0.9-6.6-2.7
		c-1.8-1.8-2.7-4-2.7-6.6v-15.5h34.8v-7.7c0-0.4-0.2-0.8-0.5-1.1c-0.3-0.3-0.7-0.5-1.1-0.5h-33.2v-7.8H263.7z M265.3,361.6v-9.3h-27
		v7.7c0,0.4,0.2,0.8,0.5,1.1c0.3,0.3,0.7,0.5,1.1,0.5H265.3z"/>
	<path fill="#FF0000" d="M340.5,327.5h8.3l-15.8,41.9h-6.4l-14.1-31.1l-13.3,31.1l-0.1-0.1l0.1,0.1H293l-16.5-41.9h8.3l11.3,27.8
		l12.1-27.8h8.9l12.8,27.8L340.5,327.5z"/>
	<path fill="#FF0000" d="M384.6,327.5c2.6,0,4.8,0.9,6.6,2.7c1.8,1.8,2.7,4,2.7,6.6v15.5h-34.8v7.7c0,0.4,0.2,0.8,0.5,1.1
		c0.3,0.3,0.7,0.5,1.1,0.5H394v7.8h-33.2c-2.6,0-4.8-0.9-6.6-2.7c-1.8-1.8-2.7-4-2.7-6.6v-23.1c0-2.6,0.9-4.8,2.7-6.6
		c1.8-1.8,4-2.7,6.6-2.7H384.6z M359.2,344.6h27v-7.7c0-0.4-0.2-0.8-0.5-1.1c-0.3-0.3-0.7-0.5-1.1-0.5h-23.8c-0.4,0-0.8,0.2-1.1,0.5
		c-0.3,0.3-0.5,0.7-0.5,1.1V344.6z"/>
	<path fill="#FF0000" d="M443.8,336.9v1.6H436v-1.6c0-0.4-0.2-0.8-0.5-1.1c-0.3-0.3-0.7-0.5-1.1-0.5h-23.9c-0.4,0-0.8,0.2-1.1,0.5
		c-0.3,0.3-0.5,0.7-0.5,1.1v6.1c0,0.4,0.2,0.8,0.5,1.1c0.3,0.3,0.7,0.5,1.1,0.5h23.9c2.6,0,4.8,0.9,6.6,2.7c1.8,1.8,2.7,4,2.7,6.6
		v6.1c0,2.6-0.9,4.8-2.7,6.6c-1.8,1.8-4,2.7-6.6,2.7h-23.9c-2.6,0-4.8-0.9-6.6-2.7c-1.8-1.8-2.7-4-2.7-6.6v-1.6h7.8v1.6
		c0,0.4,0.2,0.8,0.5,1.1c0.3,0.3,0.7,0.5,1.1,0.5h23.9c0.4,0,0.8-0.2,1.1-0.5c0.3-0.3,0.5-0.7,0.5-1.1V354c0-0.4-0.2-0.8-0.5-1.1
		c-0.3-0.3-0.7-0.5-1.1-0.5h-23.9c-2.6,0-4.8-0.9-6.6-2.7c-1.8-1.8-2.7-4-2.7-6.6v-6.1c0-2.6,0.9-4.8,2.7-6.6c1.8-1.8,4-2.7,6.6-2.7
		h23.9c2.6,0,4.8,0.9,6.6,2.7C442.9,332.1,443.8,334.3,443.8,336.9z"/>
	<path fill="#FF0000" d="M460.4,327.5h23.8c2.6,0,4.8,0.9,6.6,2.7c1.8,1.8,2.7,4,2.7,6.6v23.1c0,2.6-0.9,4.8-2.7,6.6
		c-1.8,1.8-4,2.7-6.6,2.7h-23.8c-2.6,0-4.8-0.9-6.6-2.7c-1.8-1.8-2.7-4-2.7-6.6v-23.1c0-2.6,0.9-4.8,2.7-6.6
		C455.6,328.4,457.8,327.5,460.4,327.5z M484.2,335.3h-23.8c-0.4,0-0.8,0.2-1.1,0.5c-0.3,0.3-0.5,0.7-0.5,1.1v23.1
		c0,0.4,0.2,0.8,0.5,1.1c0.3,0.3,0.7,0.5,1.1,0.5h23.8c0.4,0,0.8-0.2,1.1-0.5c0.3-0.3,0.5-0.7,0.5-1.1v-23.1c0-0.4-0.2-0.8-0.5-1.1
		C485,335.5,484.7,335.3,484.2,335.3z"/>
	<path fill="#FF0000" d="M554.8,327.5c2.6,0,4.8,0.9,6.6,2.7c1.8,1.8,2.7,4,2.7,6.6v32.5h-7.7v-32.5c0-0.4-0.2-0.8-0.5-1.1
		c-0.3-0.3-0.7-0.5-1.2-0.5h-16.6c-0.4,0-0.8,0.2-1.1,0.5c-0.3,0.3-0.5,0.7-0.5,1.1v32.5h-7.8v-32.5c0-0.4-0.2-0.8-0.5-1.1
		c-0.3-0.3-0.7-0.5-1.1-0.5h-16.6c-0.4,0-0.8,0.2-1.1,0.5c-0.3,0.3-0.5,0.7-0.5,1.1v32.5h-7.8v-41.9H554.8z"/>
	<path fill="#FF0000" d="M604.9,327.5c2.6,0,4.8,0.9,6.6,2.7c1.8,1.8,2.7,4,2.7,6.6v15.5h-34.8v7.7c0,0.4,0.2,0.8,0.5,1.1
		c0.3,0.3,0.7,0.5,1.1,0.5h33.2v7.8h-33.2c-2.6,0-4.8-0.9-6.6-2.7c-1.8-1.8-2.7-4-2.7-6.6v-23.1c0-2.6,0.9-4.8,2.7-6.6
		c1.8-1.8,4-2.7,6.6-2.7H604.9z M579.5,344.6h27v-7.7c0-0.4-0.2-0.8-0.5-1.1c-0.3-0.3-0.7-0.5-1.1-0.5h-23.8c-0.4,0-0.8,0.2-1.1,0.5
		c-0.3,0.3-0.5,0.7-0.5,1.1V344.6z"/>
</g>
<path fill="#FFFFFF" stroke="#000000" stroke-width="4" stroke-miterlimit="10" d="M614.2,91L614.2,91l-150-137.6l-21.1,23L568.1,91
	H361.3h-15.6h-48h-0.2h-15.4H75.4l125-114.7l-21.1-23L29.3,91l0,0h-0.1v90.7c0,41,39.5,74.4,88,74.4h92.5c48.5,0,88-33.4,88-74.4
	v-59.6h48v59.6c0,41,39.5,74.4,88,74.4h92.5c48.5,0,88-33.4,88-74.4V91H614.2z"/>
<path fill="#0000FF" d="M241.9,218.7H81.6c-6.6,0-12-5.4-12-12v-66.2c0-6.6,5.4-12,12-12h160.3c6.6,0,12,5.4,12,12v66.2
	C253.9,213.3,248.5,218.7,241.9,218.7z"/>
<path fill="#FF0000" d="M564.5,216.6H404.1c-6.6,0-12-5.4-12-12v-66.2c0-6.6,5.4-12,12-12h160.3c6.6,0,12,5.4,12,12v66.2
	C576.5,211.2,571.1,216.6,564.5,216.6z"/>
<rect x="29.2" y="314.2" fill="none" width="183.5" height="106.5"/>
<text transform="matrix(1 0 0 1 29.1795 369.6532)" fill="#0000FF" font-family="'Orbitron-Medium'" font-size="72px">was</text>
</svg>
